<mxfile host="app.diagrams.net" modified="2021-05-18T02:37:32.328Z" agent="5.0 (Macintosh; Intel Mac OS X 10_15_7) AppleWebKit/537.36 (KHTML, like Gecko) Chrome/90.0.4430.212 Safari/537.36" etag="IZCHqSeCgBXX1k6uSdLs" version="14.6.11" type="github">
  <diagram id="uS-U21s0DTCKI9rdyh-x" name="第 1 页">
    <mxGraphModel dx="1426" dy="711" grid="1" gridSize="10" guides="1" tooltips="1" connect="1" arrows="1" fold="1" page="1" pageScale="1" pageWidth="700" pageHeight="300" math="0" shadow="0">
      <root>
        <mxCell id="0" />
        <mxCell id="1" parent="0" />
        <mxCell id="yfAUENVfM753fR4R1Exw-1" value="Native插件" style="rounded=0;whiteSpace=wrap;html=1;" vertex="1" parent="1">
          <mxGeometry x="60" y="190" width="580" height="80" as="geometry" />
        </mxCell>
        <mxCell id="yfAUENVfM753fR4R1Exw-2" value="" style="rounded=0;whiteSpace=wrap;html=1;" vertex="1" parent="1">
          <mxGeometry x="60" y="20" width="580" height="140" as="geometry" />
        </mxCell>
        <mxCell id="yfAUENVfM753fR4R1Exw-3" value="Native 模块" style="rounded=0;whiteSpace=wrap;html=1;" vertex="1" parent="1">
          <mxGeometry x="90" y="60" width="120" height="60" as="geometry" />
        </mxCell>
        <mxCell id="yfAUENVfM753fR4R1Exw-4" value="JS 模块" style="rounded=0;whiteSpace=wrap;html=1;" vertex="1" parent="1">
          <mxGeometry x="230" y="60" width="120" height="60" as="geometry" />
        </mxCell>
        <mxCell id="yfAUENVfM753fR4R1Exw-5" value="RN 模块" style="rounded=0;whiteSpace=wrap;html=1;" vertex="1" parent="1">
          <mxGeometry x="370" y="60" width="120" height="60" as="geometry" />
        </mxCell>
        <mxCell id="yfAUENVfM753fR4R1Exw-6" value="Flutter 模块" style="rounded=0;whiteSpace=wrap;html=1;" vertex="1" parent="1">
          <mxGeometry x="510" y="60" width="120" height="60" as="geometry" />
        </mxCell>
        <mxCell id="yfAUENVfM753fR4R1Exw-7" value="" style="endArrow=classic;html=1;" edge="1" parent="1">
          <mxGeometry width="50" height="50" relative="1" as="geometry">
            <mxPoint x="289.5" y="120" as="sourcePoint" />
            <mxPoint x="289.5" y="190" as="targetPoint" />
          </mxGeometry>
        </mxCell>
        <mxCell id="yfAUENVfM753fR4R1Exw-8" value="" style="endArrow=classic;html=1;" edge="1" parent="1">
          <mxGeometry width="50" height="50" relative="1" as="geometry">
            <mxPoint x="429.5" y="120" as="sourcePoint" />
            <mxPoint x="429.5" y="190" as="targetPoint" />
          </mxGeometry>
        </mxCell>
        <mxCell id="yfAUENVfM753fR4R1Exw-9" value="" style="endArrow=classic;html=1;" edge="1" parent="1">
          <mxGeometry width="50" height="50" relative="1" as="geometry">
            <mxPoint x="569.5" y="120" as="sourcePoint" />
            <mxPoint x="569.5" y="190" as="targetPoint" />
          </mxGeometry>
        </mxCell>
        <mxCell id="yfAUENVfM753fR4R1Exw-10" value="JS Bridge" style="text;html=1;align=center;verticalAlign=middle;resizable=0;points=[];autosize=1;strokeColor=none;" vertex="1" parent="1">
          <mxGeometry x="220" y="140" width="70" height="20" as="geometry" />
        </mxCell>
        <mxCell id="yfAUENVfM753fR4R1Exw-12" value="RN Bridge" style="text;html=1;align=center;verticalAlign=middle;resizable=0;points=[];autosize=1;strokeColor=none;" vertex="1" parent="1">
          <mxGeometry x="360" y="140" width="70" height="20" as="geometry" />
        </mxCell>
        <mxCell id="yfAUENVfM753fR4R1Exw-13" value="Flutter Bridge" style="text;html=1;align=center;verticalAlign=middle;resizable=0;points=[];autosize=1;strokeColor=none;" vertex="1" parent="1">
          <mxGeometry x="490" y="140" width="90" height="20" as="geometry" />
        </mxCell>
      </root>
    </mxGraphModel>
  </diagram>
</mxfile>
